<svg width="45" height="45" viewBox="0 0 45 45" fill="none" xmlns="http://www.w3.org/2000/svg">
<path d="M20.6291 31.3268C20.8101 31.3274 20.989 31.2875 21.1525 31.2099C21.316 31.1323 21.4601 31.0191 21.5741 30.8786L27.4259 23.6093C27.6041 23.3925 27.7015 23.1206 27.7015 22.84C27.7015 22.5594 27.6041 22.2875 27.4259 22.0707L21.3682 14.8014C21.1625 14.554 20.867 14.3984 20.5467 14.3689C20.2263 14.3394 19.9073 14.4383 19.6599 14.6439C19.4125 14.8496 19.2569 15.1451 19.2274 15.4655C19.1978 15.7858 19.2968 16.1048 19.5024 16.3522L24.918 22.8461L19.6841 29.3399C19.536 29.5177 19.4419 29.7343 19.4129 29.9639C19.384 30.1936 19.4215 30.4267 19.5209 30.6357C19.6203 30.8448 19.7775 31.0209 19.9739 31.1434C20.1703 31.2659 20.3977 31.3295 20.6291 31.3268Z" fill="white"/>
<circle r="21.5" transform="matrix(-1 0 0 1 22.5 22.5)" stroke="white" stroke-width="2"/>
</svg>
