<svg width="30" height="30" viewBox="0 0 30 30" fill="none" xmlns="http://www.w3.org/2000/svg">
<g clip-path="url(#clip0)">
<path d="M27.6609 4.75312C26.0812 3.13758 23.9682 2.24783 21.711 2.24783C19.4885 2.24783 17.3989 3.11344 15.8269 4.68545L15.0156 5.49726L14.2036 4.68521C12.6318 3.11338 10.5425 2.24777 8.32072 2.24777C6.0982 2.24777 4.00863 3.11338 2.43691 4.68521C0.86543 6.25664 0 8.34603 0 10.5686C0 12.7911 0.86543 14.8805 2.43691 16.4519L12.8363 26.8512C13.437 27.4518 14.2259 27.7522 15.015 27.7522C15.8039 27.7521 16.593 27.4518 17.1936 26.8512L27.5259 16.5198C30.7712 13.2745 30.8317 7.99605 27.6609 4.75312ZM26.4365 15.4304L16.1042 25.762C15.5036 26.3626 14.5262 26.3626 13.9256 25.7619L3.52623 15.3625C2.24572 14.082 1.54055 12.3795 1.54055 10.5685C1.54055 8.75748 2.24572 7.05498 3.52623 5.77447C4.80697 4.49367 6.50971 3.78832 8.32072 3.78832C10.131 3.78832 11.8334 4.49367 13.1142 5.77447L13.9267 6.58693L12.6826 7.83199C12.3819 8.13293 12.3821 8.6206 12.683 8.92131C12.8334 9.0716 13.0304 9.14672 13.2274 9.14672C13.4247 9.14672 13.6219 9.07137 13.7723 8.9209L16.9163 5.77441C18.1971 4.49361 19.8998 3.78826 21.7108 3.78826C23.55 3.78826 25.2718 4.51342 26.5593 5.83008C29.143 8.47248 29.0879 12.7791 26.4365 15.4304Z" fill="black"/>
<path d="M27.3216 10.2189C27.237 8.84901 26.6566 7.56077 25.6874 6.59145C25.0011 5.9052 24.1496 5.40657 23.2249 5.14917C22.8151 5.03514 22.3904 5.27497 22.2764 5.68483C22.1624 6.09464 22.4022 6.51932 22.8121 6.63335C23.4816 6.81962 24.0992 7.18178 24.5981 7.68071C25.3015 8.38407 25.7227 9.31917 25.7841 10.3138C25.8094 10.7223 26.1485 11.0366 26.5522 11.0366C26.5682 11.0366 26.5843 11.0361 26.6005 11.0351C27.025 11.009 27.3479 10.6436 27.3216 10.2189Z" fill="black"/>
</g>
<defs>
<clipPath id="clip0">
<rect width="30" height="30" fill="white"/>
</clipPath>
</defs>
</svg>
