<svg width="60" height="60" viewBox="0 0 60 60" fill="none" xmlns="http://www.w3.org/2000/svg">
<circle cx="30" cy="30" r="30" fill="url(#paint0_linear)" fill-opacity="0.8"/>
<g clip-path="url(#clip0)">
<path d="M19.3917 19.3923C25.2408 13.5432 34.7581 13.5432 40.6071 19.3923C42.6593 21.4445 44.0631 24.0227 44.6668 26.8483C45.2546 29.5995 45.0621 32.45 44.1101 35.0914C43.9957 35.4086 43.6458 35.573 43.3287 35.4588C43.0114 35.3444 42.847 34.9945 42.9613 34.6774C43.836 32.2505 44.0128 29.6315 43.4727 27.1033C42.9184 24.5088 41.6289 22.1409 39.7437 20.2557C34.3707 14.8826 25.6282 14.8826 20.2552 20.2557C17.6964 22.8145 16.264 26.2158 16.222 29.8333C16.18 33.4441 17.5257 36.8726 20.0109 39.487C20.0403 39.518 20.0695 39.5491 20.0986 39.5802C20.15 39.6353 20.2014 39.6904 20.2552 39.7442C25.6282 45.1172 34.3707 45.1172 39.7437 39.7442C39.7723 39.7156 39.8002 39.6865 39.8277 39.6574C39.8292 39.601 39.8304 39.5454 39.8304 39.4907C39.8304 39.3678 39.828 39.2454 39.8236 39.1233C39.822 39.0825 39.819 39.0421 39.817 39.0014C39.813 38.9203 39.8092 38.8392 39.8033 38.7585C39.7998 38.7104 39.7946 38.6628 39.7903 38.6148C39.7839 38.5421 39.7779 38.4693 39.7699 38.397C39.7643 38.3459 39.757 38.2952 39.7506 38.2443C39.742 38.1757 39.7337 38.1068 39.7235 38.0384C39.7158 37.9863 39.7066 37.9347 39.6981 37.8829C39.6872 37.8162 39.6766 37.7496 39.6643 37.6833C39.6546 37.6309 39.6436 37.579 39.633 37.5269C39.6198 37.4619 39.6069 37.3968 39.5925 37.3322C39.5808 37.2798 39.5677 37.2277 39.5552 37.1756C39.54 37.112 39.5248 37.0484 39.5083 36.9853C39.4946 36.933 39.4797 36.8811 39.4653 36.8291C39.4479 36.7668 39.4306 36.7044 39.4119 36.6425C39.3964 36.5906 39.3797 36.5392 39.3632 36.4877C39.3437 36.4265 39.3241 36.3652 39.3035 36.3046C39.286 36.2534 39.2677 36.2025 39.2493 36.1517C39.2277 36.0914 39.2059 36.0312 39.1831 35.9713C39.1638 35.9208 39.1437 35.8707 39.1236 35.8205C39.0999 35.7614 39.0759 35.7023 39.0511 35.6437C39.0299 35.5938 39.0082 35.5443 38.9862 35.4949C38.9604 35.4368 38.9344 35.3789 38.9075 35.3214C38.8846 35.2724 38.8612 35.2238 38.8375 35.1753C38.8096 35.1182 38.7814 35.0612 38.7525 35.0047C38.728 34.9569 38.7031 34.9093 38.6778 34.8618C38.6478 34.8057 38.6174 34.7497 38.5864 34.694C38.5602 34.6472 38.5338 34.6006 38.5069 34.5543C38.4749 34.4993 38.4425 34.4445 38.4094 34.39C38.3816 34.3442 38.3535 34.2986 38.3251 34.2532C38.2911 34.1993 38.2566 34.1457 38.2216 34.0924C38.1923 34.0478 38.1627 34.0033 38.1327 33.9591C38.0968 33.9062 38.0601 33.8539 38.023 33.8017C37.9922 33.7583 37.9614 33.7149 37.9298 33.6721C37.8919 33.6204 37.8531 33.5692 37.8141 33.5183C37.7819 33.4762 37.7497 33.4341 37.7167 33.3924C37.6767 33.3419 37.6358 33.2919 37.5948 33.2421C37.5613 33.2014 37.5279 33.1607 37.4937 33.1205C37.4515 33.0711 37.4085 33.0223 37.3654 32.9737C37.3306 32.9344 37.296 32.895 37.2605 32.8564C37.2164 32.8081 37.1713 32.7608 37.1261 32.7135C37.0901 32.6756 37.0543 32.6377 37.0176 32.6003C36.9713 32.5533 36.924 32.5073 36.8768 32.4611C36.8398 32.425 36.803 32.3885 36.7654 32.3529C36.7167 32.3069 36.667 32.262 36.6174 32.217C36.5796 32.1827 36.5422 32.148 36.5039 32.1142C36.4527 32.0692 36.4002 32.0254 36.348 31.9813C36.3097 31.9491 36.2718 31.9163 36.2331 31.8846C36.179 31.8404 36.1237 31.7976 36.0685 31.7544C36.0301 31.7244 35.9922 31.6937 35.9533 31.6641C35.8952 31.6201 35.8359 31.5775 35.7767 31.5348C35.7393 31.5077 35.7027 31.4801 35.6648 31.4535C35.5995 31.4076 35.5327 31.3633 35.466 31.3189C35.4331 31.297 35.401 31.2743 35.3679 31.2527C35.281 31.1963 35.1926 31.1416 35.1035 31.0877C35.0897 31.0793 35.0763 31.0704 35.0623 31.062C34.9593 31.0004 34.8549 30.9405 34.7493 30.8823C34.7132 30.8625 34.676 30.8439 34.6395 30.8244C34.5694 30.787 34.4995 30.7492 34.4282 30.7134C34.3825 30.6904 34.3357 30.6688 34.2896 30.6465C34.2314 30.6184 34.1734 30.5899 34.1144 30.5627C33.0078 31.6198 31.5316 32.2182 29.9993 32.2182C28.467 32.2182 26.9906 31.6197 25.884 30.5625C23.7237 31.5623 21.9557 33.3562 20.9958 35.5377C20.86 35.8463 20.4999 35.9866 20.1911 35.8507C19.8824 35.7149 19.7423 35.3546 19.8781 35.046C20.9281 32.6598 22.756 30.7529 25.0697 29.6018C24.3984 28.6171 24.0352 27.4542 24.0352 26.2543C24.0352 22.9657 26.7107 20.2903 29.9993 20.2903C30.3364 20.2903 30.6098 20.5637 30.6098 20.9008C30.6098 21.2379 30.3364 21.5114 29.9993 21.5114C27.3839 21.5114 25.2564 23.6391 25.2564 26.2543C25.2564 27.4237 25.691 28.5498 26.48 29.4248C26.4801 29.4249 26.4802 29.425 26.4803 29.4251C27.3813 30.4242 28.6639 30.9972 29.9994 30.9972C31.3349 30.9972 32.6176 30.4242 33.5184 29.4251C33.5185 29.4249 33.5187 29.4248 33.5189 29.4247C34.3079 28.5494 34.7424 27.4236 34.7424 26.2544C34.7424 24.9779 34.2427 23.7804 33.3352 22.8827C33.0954 22.6455 33.0934 22.2589 33.3306 22.0193C33.5677 21.7794 33.9543 21.7776 34.194 22.0146C35.335 23.1431 35.9635 24.6488 35.9635 26.254C35.9635 27.4527 35.6012 28.6147 34.9311 29.5989C34.9371 29.6019 34.9429 29.6051 34.9488 29.6082C34.9964 29.632 35.0429 29.6572 35.0901 29.6816C35.1625 29.719 35.235 29.7563 35.3063 29.7952C35.3568 29.8227 35.4062 29.8516 35.4561 29.8798C35.5228 29.9175 35.5895 29.9551 35.6553 29.9941C35.7063 30.0244 35.7564 30.0557 35.8069 30.0868C35.87 30.1256 35.9331 30.1644 35.9953 30.2044C36.046 30.2371 36.0959 30.2706 36.1461 30.304C36.2064 30.3442 36.2667 30.3846 36.3261 30.4259C36.376 30.4607 36.4254 30.4963 36.4748 30.5318C36.5328 30.5736 36.5906 30.6156 36.6476 30.6585C36.6966 30.6952 36.7449 30.7324 36.7932 30.7699C36.8491 30.8133 36.9047 30.8571 36.9596 30.9016C37.0073 30.94 37.0545 30.979 37.1015 31.0182C37.1555 31.0634 37.2092 31.109 37.2623 31.1552C37.3084 31.1952 37.3542 31.2355 37.3995 31.2763C37.452 31.3235 37.5036 31.3711 37.555 31.4191C37.5994 31.4605 37.6437 31.502 37.6874 31.5443C37.7382 31.5933 37.7882 31.6431 37.838 31.693C37.8806 31.7357 37.9231 31.7782 37.9648 31.8215C38.0142 31.8727 38.0626 31.9248 38.1109 31.9769C38.1513 32.0204 38.1921 32.0638 38.2317 32.108C38.2801 32.1618 38.3271 32.2166 38.3743 32.2712C38.4123 32.3152 38.4505 32.3588 38.4878 32.4032C38.5357 32.4605 38.5821 32.5189 38.6288 32.5771C38.6635 32.6205 38.6989 32.6632 38.733 32.7071C38.7821 32.7702 38.8295 32.8345 38.8771 32.8986C38.907 32.9389 38.9377 32.9785 38.9671 33.0192C39.0273 33.1026 39.0856 33.1873 39.1434 33.2724C39.1586 33.2947 39.1746 33.3165 39.1897 33.339C39.2616 33.4465 39.3316 33.5551 39.3996 33.6651C39.4231 33.703 39.4452 33.7418 39.4682 33.7799C39.5123 33.8531 39.5565 33.9262 39.599 34.0003C39.6254 34.0466 39.6505 34.0938 39.6762 34.1405C39.7134 34.2076 39.7507 34.2746 39.7863 34.3426C39.8128 34.3929 39.8378 34.4439 39.8636 34.4947C39.8967 34.5602 39.93 34.6257 39.9619 34.6919C39.9872 34.7446 40.0113 34.7979 40.0358 34.851C40.066 34.9164 40.0962 34.9817 40.1251 35.0478C40.1489 35.1022 40.1717 35.1572 40.1946 35.212C40.2222 35.2778 40.2495 35.3437 40.2758 35.41C40.2979 35.4658 40.319 35.5219 40.3402 35.5779C40.3652 35.6445 40.39 35.7111 40.4138 35.7782C40.4339 35.8351 40.4535 35.8923 40.4728 35.9496C40.4955 36.0168 40.5176 36.0843 40.5389 36.1522C40.5572 36.2099 40.5748 36.2678 40.5921 36.3258C40.6124 36.3942 40.632 36.4629 40.6511 36.5319C40.6672 36.5901 40.6829 36.6484 40.6981 36.7071C40.7161 36.7768 40.7332 36.8468 40.7499 36.917C40.7638 36.9756 40.7777 37.0341 40.7906 37.0929C40.8063 37.1641 40.8208 37.2356 40.8351 37.3072C40.8468 37.3658 40.8587 37.4245 40.8695 37.4834C40.8828 37.5564 40.8948 37.6299 40.9067 37.7035C40.9161 37.7615 40.9259 37.8194 40.9344 37.8776C40.9455 37.9535 40.9548 38.0298 40.9644 38.1062C40.9714 38.1627 40.9792 38.2192 40.9854 38.276C40.9941 38.356 41.0008 38.4365 41.0078 38.517C41.0125 38.5706 41.0181 38.624 41.022 38.6779C41.0285 38.7678 41.0328 38.8581 41.0372 38.9484C41.0393 38.9933 41.0426 39.0379 41.0443 39.0828C41.0492 39.2184 41.0519 39.3544 41.0519 39.491C41.0519 39.6385 41.0469 39.7779 41.0409 39.9318C41.0395 39.9674 41.0345 40.002 41.0274 40.0358C41.0268 40.0385 41.0265 40.0411 41.0259 40.0438C41.0183 40.077 41.0077 40.109 40.995 40.1399C40.9938 40.143 40.9927 40.146 40.9914 40.1491C40.9782 40.1796 40.9626 40.2087 40.9449 40.2364C40.9426 40.2399 40.9405 40.2433 40.9382 40.2467C40.92 40.2738 40.8998 40.2994 40.8777 40.3232C40.8761 40.3249 40.8749 40.3271 40.8733 40.3288L40.7927 40.4146C40.7319 40.4797 40.671 40.5446 40.6075 40.608C37.6829 43.5326 33.8414 44.9949 29.9998 44.9949C26.1581 44.9949 22.3166 43.5326 19.392 40.608C19.3285 40.5446 19.2677 40.4796 19.2068 40.4146L19.1262 40.3288C16.4206 37.4825 14.9556 33.7503 15.0013 29.8195C15.0468 25.8809 16.6062 22.1779 19.3917 19.3923Z" fill="white"/>
</g>
<defs>
<linearGradient id="paint0_linear" x1="11.0625" y1="17.8214" x2="83.9936" y2="44.1516" gradientUnits="userSpaceOnUse">
<stop stop-color="#C21500"/>
<stop offset="0.9999" stop-color="#E27200"/>
<stop offset="1" stop-color="#FFC500"/>
</linearGradient>
<clipPath id="clip0">
<rect width="30" height="30" fill="white" transform="matrix(-1 0 0 1 45 15)"/>
</clipPath>
</defs>
</svg>
