<svg width="15" height="15" viewBox="0 0 15 15" fill="none" xmlns="http://www.w3.org/2000/svg">
<g clip-path="url(#clip0)">
<path d="M13.8305 2.37646C13.0406 1.56868 11.9841 1.12381 10.8555 1.12381C9.74426 1.12381 8.69944 1.55661 7.91347 2.34262L7.50782 2.74853L7.1018 2.3425C6.31588 1.55658 5.27127 1.12378 4.16036 1.12378C3.0491 1.12378 2.00432 1.55658 1.21846 2.3425C0.432715 3.12821 0 4.17291 0 5.28417C0 6.39543 0.432715 7.44013 1.21846 8.22584L6.41813 13.4255C6.71851 13.7258 7.11296 13.876 7.5075 13.876C7.90195 13.8759 8.29649 13.7258 8.59679 13.4255L13.763 8.25979C15.3856 6.63713 15.4159 3.99792 13.8305 2.37646ZM13.2183 7.71511L8.0521 12.8809C7.75178 13.1812 7.26311 13.1812 6.96281 12.8808L1.76312 7.68112C1.12286 7.0409 0.770273 6.18965 0.770273 5.28414C0.770273 4.37863 1.12286 3.52738 1.76312 2.88713C2.40349 2.24673 3.25485 1.89405 4.16036 1.89405C5.06552 1.89405 5.91671 2.24673 6.55711 2.88713L6.96334 3.29336L6.34128 3.91589C6.19093 4.06636 6.19104 4.31019 6.34148 4.46055C6.41669 4.53569 6.51519 4.57325 6.61371 4.57325C6.71235 4.57325 6.81094 4.53558 6.88614 4.46034L8.45815 2.8871C9.09855 2.2467 9.94989 1.89402 10.8554 1.89402C11.775 1.89402 12.6359 2.2566 13.2796 2.91493C14.5715 4.23613 14.5439 6.38945 13.2183 7.71511Z" fill="black"/>
<path d="M1.54764 4.53014C1.54764 4.16899 1.54764 3.08557 1.54764 3.44671C1.54764 4.16364 1.10002 4.87565 0.885683 5.54927C0.836027 5.70533 0.934621 5.47663 0.949974 5.44688C1.06649 5.22113 1.08835 4.98036 1.17142 4.74444C1.18178 4.71504 1.24252 4.48736 1.29048 4.47537C1.32511 4.46671 1.34002 5.15903 1.34287 5.20638C1.35775 5.45376 1.37385 5.70399 1.40954 5.94931C1.42619 6.06382 1.43744 6.10572 1.5286 5.9755C1.86868 5.48967 1.902 4.83558 2.23104 4.34202C2.28942 4.25445 2.32661 4.53331 2.34295 4.63729C2.42163 5.13794 2.513 5.63688 2.57631 6.1398C2.60116 6.33724 2.61917 6.53151 2.61917 6.73033C2.61917 6.96685 2.61917 6.25727 2.61917 6.02074C2.61917 5.52863 2.61917 5.03653 2.61917 4.54442C2.61917 4.52385 2.59004 4.19303 2.68822 4.30631C2.93031 4.58564 3.01152 5.09933 3.10492 5.4445C3.18589 5.74372 3.24832 6.05433 3.36685 6.3422C3.38225 6.3796 3.42124 6.45276 3.43114 6.36363C3.46451 6.0633 3.46419 5.75572 3.48591 5.45403C3.48836 5.41996 3.51814 4.84202 3.61449 4.97779C3.94589 5.44477 4.06589 6.23396 4.20025 6.77319C4.30891 7.20925 4.35882 7.65591 4.46218 8.09235C4.53412 8.39607 4.54285 7.99348 4.54552 7.89709C4.55806 7.44587 4.53335 6.98956 4.49552 6.53983C4.47383 6.28204 4.4558 6.18591 4.60029 6.5065C4.8345 7.02616 5.03277 7.56167 5.18367 8.1114C5.25956 8.38783 5.31501 8.6842 5.43846 8.9448C5.46028 8.99087 5.44798 8.61871 5.44798 8.59239C5.44798 8.32124 5.435 8.05652 5.40512 7.78756" stroke="black" stroke-linecap="round" stroke-linejoin="round"/>
<path d="M5.10509 5.85881C5.12494 6.59337 5.40146 7.29448 5.5718 8.00423C5.6092 8.16009 5.61359 8.35789 5.67181 8.50666C5.72689 8.64742 5.7064 8.20535 5.70276 8.05424C5.69052 7.54607 5.59237 7.0436 5.46941 6.55173C5.46662 6.5406 5.4451 6.42908 5.44798 6.46363C5.47085 6.73814 5.5417 7.0108 5.59561 7.28036C5.63186 7.46163 5.67925 7.63883 5.72181 7.8185C5.72722 7.84136 5.76866 8.06658 5.73848 7.91137C5.52071 6.7914 5.04949 5.67476 4.67172 4.60156C4.63978 4.51083 4.37966 3.5217 4.42884 4.12533C4.49072 4.88481 4.73433 5.66362 4.96698 6.38743C5.1131 6.84202 4.83065 5.96692 4.80268 5.89453C4.62205 5.42701 4.42606 4.96322 4.25025 4.49441C4.09524 4.08103 4.39702 5.37009 4.5479 5.785C4.62401 5.99431 4.87265 6.67807 4.70744 6.02549C4.47905 5.12337 4.07459 4.27186 3.74307 3.40622C3.7354 3.38621 3.6722 3.07246 3.65735 3.2443C3.62566 3.61093 3.6901 3.99284 3.75735 4.35154C3.82078 4.68978 3.9047 5.0234 3.98118 5.35877C3.98968 5.39602 4.03357 5.62206 4.03357 5.60879C4.03357 4.94261 3.70278 4.23772 3.524 3.60385C3.48365 3.46078 3.45636 3.26767 3.37399 3.13953C3.27763 2.98964 3.37594 3.49794 3.40971 3.67291C3.46585 3.96384 3.53563 4.24933 3.58353 4.54203C3.58602 4.55722 3.67523 4.85369 3.68116 4.83491C3.7276 4.68785 3.52449 4.35815 3.47876 4.2301C3.39087 3.98401 3.31324 3.73442 3.22874 3.48718C3.14893 3.25366 3.09388 3.17979 3.09063 3.49194C3.08714 3.82681 3.09063 4.16189 3.09063 4.49679C3.09063 4.59209 3.08966 4.30596 3.08111 4.21105C3.0546 3.9171 2.96502 3.63913 2.87871 3.3586C2.82791 3.19351 2.77643 3.02933 2.71441 2.86808C2.7069 2.84857 2.70488 3.15624 2.70488 3.18953C2.70488 3.60254 2.71692 4.0115 2.83108 4.41107C2.9292 4.75446 2.71321 3.70176 2.58582 3.36812C2.56329 3.3091 2.41096 2.79222 2.40486 3.11572C2.40362 3.18147 2.34694 3.76412 2.31914 3.73958C2.16722 3.60554 2.11165 3.25307 2.01911 3.07286C1.90773 2.85596 1.93339 3.33615 1.93339 3.40622C1.93339 3.61 1.96466 3.56376 1.90481 3.39669C1.67493 2.75495 1.83471 3.48651 1.63336 3.58719" stroke="black" stroke-linecap="round" stroke-linejoin="round"/>
<path d="M2.10486 2.64426C2.52641 2.63422 2.92984 2.43116 3.34782 2.38472C3.4807 2.36995 3.59703 2.34424 3.73357 2.34424C4.01162 2.34424 4.20219 2.43393 4.4622 2.50615C4.76715 2.59086 5.08747 2.70712 5.38609 2.81571C5.4896 2.85334 5.61499 2.94429 5.7266 2.94429C5.78081 2.94429 5.42968 2.69695 5.38609 2.67045C5.15919 2.53253 4.91461 2.42602 4.68603 2.29185C4.57663 2.22764 3.98758 2.17279 4.38125 2.17279C4.79113 2.17279 5.19578 2.14257 5.58611 2.26804C5.86616 2.35805 6.1051 2.50988 6.32665 2.68712C6.41565 2.75832 6.59929 3.0513 6.60525 3.15859C6.61798 3.38775 6.66773 3.8166 6.41237 3.93009C6.31966 3.97129 6.25675 4.01581 6.15283 4.01581C5.89803 4.01581 5.76345 3.46752 5.69564 3.27765C5.64523 3.13648 5.66231 3.43714 5.66231 3.45862C5.66231 3.638 5.66231 3.81738 5.66231 3.99676C5.66231 4.05363 5.68565 4.18636 5.64326 4.06343C5.48338 3.59977 5.28492 3.14732 5.04321 2.72046C4.92372 2.50945 4.52523 1.70359 4.44316 2.31328C4.40347 2.6081 4.40693 2.92074 4.44316 3.21574C4.4594 3.34799 4.58226 3.73023 4.54793 3.60149C4.48727 3.37404 4.30422 3.14539 4.16218 2.96334C4.14145 2.93677 3.90955 2.61098 3.87168 2.62045C3.8324 2.63027 4.11818 3.13458 4.12884 3.15383C4.22387 3.32537 4.34185 3.75845 4.5265 3.86103C4.63383 3.92066 4.63357 3.42679 4.7027 3.5491C5.06005 4.18133 5.10392 4.97778 5.27656 5.66833C5.2963 5.74728 5.36228 5.9783 5.36228 5.89692C5.36228 5.39734 5.29141 4.89625 5.20036 4.40632C5.14291 4.09717 5.08059 3.78769 5.02892 3.47767C4.97755 3.16947 5.31697 4.03367 5.42895 4.32536C5.60739 4.79012 5.74809 5.25886 5.87423 5.73977C5.88311 5.77362 5.96233 6.21002 5.96233 5.99455C5.96233 5.78675 5.96739 5.57964 5.9409 5.37307C5.9334 5.31457 5.89026 5.01809 5.93852 5.24925C6.11077 6.07421 6.38354 6.8815 6.51 7.71613C6.627 8.48835 6.41732 6.15596 6.32665 5.38021C6.31908 5.31547 6.26002 4.9021 6.26474 4.95637C6.29119 5.26047 6.37211 5.55819 6.40999 5.86121C6.44768 6.16269 6.47666 6.46677 6.47666 6.77081C6.47666 7.01936 6.46759 6.3172 6.46714 6.30648C6.44695 5.82855 6.39012 5.35462 6.35761 4.87779C6.35168 4.79094 6.31128 4.41191 6.44333 4.67301C6.69637 5.17334 6.88816 5.754 6.98861 6.30648C7.08005 6.80939 6.99099 5.28417 6.99099 4.77302C6.99099 4.74805 7.00767 4.36925 7.01481 4.37536C7.062 4.41581 7.08291 4.57491 7.09577 4.62062C7.16437 4.86453 7.24882 5.10278 7.32436 5.34449C7.37178 5.49625 7.41163 5.65025 7.46008 5.80168C7.47924 5.86155 7.51163 6.02988 7.53866 5.97312C7.64292 5.75417 7.55116 5.27238 7.53866 5.03494C7.52635 4.80098 7.50532 4.56933 7.50532 4.33488C7.50532 4.12625 7.64311 4.50645 7.65534 4.53728C7.78191 4.85647 7.97679 5.8593 7.97679 5.51594C7.97679 5.12841 7.97928 4.74083 7.95298 4.35393C7.94127 4.18155 7.92038 4.01108 7.9006 3.8396C7.89496 3.79072 7.85491 3.67369 7.9006 3.69197C8.00634 3.73427 8.11137 4.18709 8.14824 4.2825C8.23448 4.50572 8.25903 4.76944 8.36254 4.98256C8.40814 5.07645 8.40519 4.63422 8.4054 4.60634C8.40749 4.33697 8.41914 4.05736 8.45064 3.7896C8.4575 3.73129 8.52117 3.69061 8.5578 3.75388C8.68849 3.97963 8.72326 4.29468 8.78877 4.54443C8.82403 4.67885 8.83768 4.89162 8.91735 5.01113C8.94905 5.05869 8.92065 4.89684 8.91973 4.83969C8.91469 4.5244 8.88664 4.21253 8.83401 3.90151C8.78527 3.61349 8.72703 3.32645 8.67209 3.03953C8.63528 2.84729 8.67115 3.26824 8.67209 3.28241C8.69268 3.5912 8.75249 3.89401 8.78163 4.20154C8.79896 4.38447 8.79379 4.53694 8.67924 4.27297C8.49152 3.84042 8.36254 2.42275 8.36254 2.89428C8.36254 3.06424 8.71562 3.50975 8.50065 3.50148C8.19683 3.48979 9.03557 2.58693 9.04832 2.63474C9.14127 2.98331 9.26262 3.36149 9.26262 3.72531C9.26262 4.2825 9.25077 2.6108 9.26262 2.05373C9.2671 1.84299 9.35615 2.16535 9.36739 2.20137C9.44244 2.44197 9.50004 2.68176 9.56264 2.92524C9.68121 3.38631 9.70277 2.72161 9.75314 2.5633C9.85745 2.23547 9.8926 2.57442 9.94839 2.7657C10.0187 3.00664 10.1198 3.53861 10.1198 2.9681C10.1198 2.88545 10.1094 1.97483 10.2579 2.27756C10.2891 2.34101 10.5322 3.01355 10.5723 2.94429C10.6778 2.76196 10.725 2.49126 10.7604 2.28471C10.7739 2.20551 10.7649 1.97808 10.8294 1.92277C10.8638 1.89327 10.9932 2.1496 11.0628 2.17279" stroke="black" stroke-linecap="round" stroke-linejoin="round"/>
<path d="M11.0627 2.08716C11.5671 2.08716 12.0244 2.44881 12.3724 2.79674C12.5691 2.99345 12.8814 3.19593 13.0343 3.42537C13.1714 3.63093 13.1754 3.82972 13.2082 4.05876C13.2834 4.58556 13.3077 5.1564 13.0248 5.63508C12.8169 5.98688 12.5079 6.465 12.1343 6.65184C12.0912 6.67337 11.9119 6.81921 11.8866 6.72089C11.8439 6.55469 11.8342 6.33235 11.8342 6.15894" stroke="black" stroke-linecap="round" stroke-linejoin="round"/>
<path d="M11.2771 4.53004C11.2771 5.04675 11.2771 5.56347 11.2771 6.08018C11.2771 6.20863 11.3781 6.88739 11.1913 6.88739C10.8755 6.88739 10.7584 5.97591 10.7199 5.76586C10.6361 5.30957 10.5725 4.85148 10.5294 4.38956C10.5038 4.11556 10.543 3.8239 10.496 3.55377C10.3554 2.74515 10.4477 5.19536 10.4675 6.01589C10.4786 6.47678 10.508 6.94882 10.5699 7.40648C10.6154 7.7438 10.5914 7.11789 10.5913 7.11122C10.5797 6.35211 10.491 5.62432 10.2913 4.89198C10.2787 4.84581 10.048 4.13223 10.0365 4.33955C9.99745 5.04194 10.0341 5.75515 10.0341 6.45878" stroke="black" stroke-linecap="round" stroke-linejoin="round"/>
<path d="M8.74829 6.45898C8.74829 7.3162 8.74829 8.17342 8.74829 9.03063" stroke="black" stroke-linecap="round" stroke-linejoin="round"/>
<path d="M7.67676 8.302C7.67676 9.23065 7.67676 10.1593 7.67676 11.088" stroke="black" stroke-linecap="round" stroke-linejoin="round"/>
<path d="M7.63391 6.33032C7.63391 6.94466 7.63391 7.559 7.63391 8.17334" stroke="black" stroke-linecap="round" stroke-linejoin="round"/>
<path d="M7.33385 6.6732C7.33385 8.07253 7.33385 9.47186 7.33385 10.8712C7.33385 11.0379 7.29099 11.1971 7.29099 11.3593C7.29099 11.4298 7.25757 11.2224 7.2386 11.1545C7.09717 10.6487 7.02913 10.1226 6.96715 9.60203C6.86812 8.77014 6.76423 7.91479 6.7338 7.078C6.72234 6.76284 6.69094 6.81362 6.69094 7.15181C6.69094 8.74163 6.69094 10.3315 6.69094 11.9213C6.69094 13.211 6.57655 9.34008 6.39091 8.0638C6.37287 7.93976 6.34805 7.81814 6.34805 7.69234C6.34805 7.59329 6.32159 7.88879 6.31471 7.9876C6.27579 8.54711 6.25133 9.11327 6.22185 9.67346C6.21383 9.82584 6.17661 9.97199 6.17661 10.1235C6.17661 10.3387 6.11266 9.78634 6.10041 9.73537C6.05161 9.53236 6.06042 9.2564 5.95278 9.07341C5.90566 8.9933 5.88207 9.08089 5.87896 9.13056C5.86388 9.37189 5.87658 9.61754 5.87658 9.85919C5.87658 9.92207 5.87242 10.8979 5.86706 10.8974C5.79654 10.891 5.65124 10.6351 5.61703 10.5878C5.39234 10.2772 5.21422 9.92983 5.04318 9.58774C4.52941 8.56021 4.0795 7.47227 3.34779 6.57796C3.27645 6.49076 3.19685 6.35009 3.09063 6.29698C2.86148 6.1824 3.43679 6.70222 3.46685 6.73749C4.00677 7.371 4.54106 8.03847 4.99079 8.74005C5.29044 9.2075 4.61085 8.42802 4.54789 8.36144C4.00495 7.7873 3.43734 7.21414 2.94538 6.59462C2.89289 6.52853 2.82722 6.42244 2.74774 6.3827C2.58594 6.3018 2.98653 6.65483 3.11444 6.78274C3.61641 7.28471 4.14083 7.76789 4.58123 8.32573C4.59255 8.34006 4.68952 8.40931 4.61933 8.37811C4.27421 8.22472 3.98281 7.82847 3.71449 7.57804C3.30834 7.19897 2.89 6.75996 2.43105 6.44223C2.35484 6.38947 2.58957 6.63698 2.66202 6.6732" stroke="black" stroke-linecap="round" stroke-linejoin="round"/>
<path d="M1.03333 6.24463C1.16732 6.63085 1.45223 6.93323 1.70005 7.25186C1.81812 7.40366 2.00983 7.52116 2.14771 7.65904C2.43929 7.95062 2.7003 8.2639 2.96206 8.58293C3.34788 9.05314 3.91894 9.48427 4.21455 10.0164C4.2745 10.1243 4.46986 10.2155 4.56696 10.295C4.61472 10.334 4.62659 10.4043 4.6765 10.4355C4.84721 10.5422 4.51302 10.1373 4.49077 10.1069C3.72725 9.06206 2.90878 8.08198 1.99769 7.1709C1.94104 7.11424 1.46848 6.40853 1.61671 6.37559C2.096 6.26908 2.4863 6.82482 2.76443 7.1209C3.04967 7.42454 3.22952 7.80852 3.48592 8.13051C3.65542 8.34337 3.80043 8.54027 3.99072 8.73056C4.12872 8.86855 4.26304 8.98845 4.37647 9.14964C4.91413 9.91369 5.34502 10.7826 6.04566 11.3665C6.1411 11.446 6.24623 11.5233 6.32426 11.6237C6.44493 11.7788 6.52272 11.986 6.65762 12.1261C6.72659 12.1977 6.85269 12.2866 6.90526 12.3523C6.95296 12.4119 7.06635 12.4195 7.0767 12.5023C7.09959 12.6854 7.38072 12.7595 7.52674 12.7595C7.75824 12.7595 7.89815 12.361 7.99821 12.1809C8.07134 12.0492 8.09299 11.8788 8.17204 11.7546C8.26459 11.6092 8.39458 11.5105 8.49111 11.3784C8.62625 11.1935 8.80338 11.0127 8.90067 10.8093C8.99127 10.6199 9.09615 10.2131 9.26261 10.1021" stroke="black" stroke-linecap="round" stroke-linejoin="round"/>
<path d="M7.59103 12.1594C7.58564 11.901 7.56618 11.9441 7.42911 11.807C7.37614 11.754 7.29819 11.6881 7.34339 11.6022C7.44728 11.4048 7.80249 11.2387 7.9863 11.1307C8.23246 10.9862 8.58218 10.808 8.72684 10.5521C8.92431 10.2027 9.04829 9.86968 9.04829 9.45917C9.04829 9.31202 9.08383 8.91001 9.00067 9.31392C8.85874 10.0033 8.70541 10.7142 8.70541 11.4212C8.70541 11.5854 8.68393 11.0935 8.66255 10.9307C8.59897 10.4468 8.52127 9.96394 8.43872 9.48298C8.33406 8.87323 8.19184 8.27458 8.02916 7.67806C7.98042 7.49935 7.9144 6.97309 7.85772 7.14944C7.77736 7.39943 7.84023 7.80546 7.86724 8.05905C7.90243 8.3894 7.99129 8.72045 8.06249 9.04485C8.07047 9.0812 8.10536 9.24843 8.10536 9.2401C8.10536 8.65354 8.10536 8.06698 8.10536 7.48042C8.10536 7.05975 8.10536 6.63908 8.10536 6.21841C8.10536 6.12394 8.01847 5.91214 8.11012 5.93505C8.26067 5.97269 8.43618 6.78484 8.47444 6.89704C8.64293 7.3913 8.8576 7.8781 8.97686 8.38765C9.03461 8.6344 9.01172 8.47475 8.99829 8.30907C8.94096 7.60197 8.79141 6.89126 8.66255 6.1946C8.56477 5.66601 8.44295 5.14214 8.34585 4.61351C8.26642 4.18106 8.48159 5.02699 8.50063 5.0826C8.66016 5.54861 8.83669 6.00864 8.98638 6.47796C9.05201 6.68371 9.08864 6.77114 9.09116 6.49224C9.09484 6.08294 9.06711 5.66754 9.09116 5.2588C9.1171 4.8178 9.28727 6.12139 9.34832 6.55892C9.39044 6.86076 9.39505 6.90197 9.39118 6.55415C9.38108 5.64499 9.23066 4.75378 9.11735 3.85392C9.08685 3.61173 9.05729 3.3705 9.01496 3.13005C9.01268 3.11712 8.949 2.88985 8.9721 2.86098C9.04131 2.77446 9.08502 3.05228 9.12925 3.15386C9.30374 3.55461 9.46629 3.96184 9.62692 4.36825C9.90005 5.05932 10.1382 5.76283 10.3913 6.46129C10.4038 6.49596 10.5339 6.93005 10.546 6.66845C10.5782 5.97692 10.5484 5.27733 10.5484 4.58494C10.5484 4.32974 10.5059 3.79388 10.6246 4.3873C10.6841 4.68491 10.7398 4.98436 10.7961 5.28262C10.8175 5.3963 10.6922 4.92385 10.677 4.87782C10.6472 4.78721 10.2401 3.48365 10.1293 3.52056C10.0379 3.55105 10.1627 5.92076 10.1627 3.5277C10.1627 2.38426 10.9148 4.08956 11.1913 3.92059C11.2965 3.85635 11.2342 3.45415 11.2342 3.3634C11.2342 3.0729 11.2342 2.7824 11.2342 2.4919C11.2342 2.34821 11.2216 2.27892 11.2437 2.47761C11.3171 3.13805 11.4804 3.78787 11.5938 4.44207C11.6313 4.65867 11.6628 4.87193 11.6628 5.09212C11.6628 5.22386 11.6284 4.8307 11.6199 4.69923C11.5975 4.35068 11.4599 3.33301 11.6033 3.65152C11.7303 3.93378 11.7651 4.2712 11.8342 4.57065C11.8827 4.78054 11.9628 5.00762 11.9628 5.22547C11.9628 6.03665 11.939 3.60275 11.9628 2.79192C11.9672 2.64448 12.1313 3.23243 12.1438 3.28721C12.274 3.8583 12.345 4.44899 12.4153 5.03021C12.4307 5.15802 12.4379 5.54465 12.4343 5.41596C12.4259 5.1136 12.3782 4.81288 12.3581 4.51112C12.3418 4.2673 12.3104 4.022 12.3057 3.77772C12.3026 3.61808 12.3057 4.12446 12.3057 4.14918C12.3057 4.81363 12.3914 5.47016 12.3914 6.13269C12.3914 6.41394 12.3749 6.21236 12.3962 6.04697C12.4482 5.64431 12.7346 5.33877 12.8415 4.95878C12.9864 4.44338 12.9486 3.89357 12.9486 3.3634C12.9486 3.28141 12.9002 2.63706 13.0344 2.69668C13.3274 2.82692 13.4824 3.10959 13.613 3.39674C13.7248 3.64284 13.6301 4.06615 13.6773 4.3373C13.7351 4.67004 13.8153 4.98019 13.8058 5.32071C13.8008 5.50355 13.7227 5.67822 13.6677 5.84933C13.6518 5.8989 13.6268 6.00725 13.6773 5.89219C13.7573 5.70981 13.8313 5.53352 13.882 5.33976C13.9085 5.23898 14.0202 4.53938 14.0202 4.92544C14.0202 5.13249 14.0407 5.35274 14.0178 5.55883C13.9982 5.73511 13.8734 6.04847 13.7416 6.18031C13.4902 6.43163 13.3135 6.7513 13.0677 7.00657C12.9202 7.15971 12.8131 7.33842 12.6486 7.47804C12.3771 7.70853 12.0776 7.90823 11.8366 8.17334C11.6421 8.38732 11.4399 8.61606 11.2794 8.85673C11.2016 8.97346 11.0591 9.18241 10.9342 9.24486" stroke="black" stroke-linecap="round" stroke-linejoin="round"/>
<path d="M13.7201 6.84473C13.5534 7.29851 13.1568 7.81795 12.82 8.17341C12.5568 8.45133 12.1893 8.62289 11.9295 8.91157C11.5089 9.37883 11.1086 9.86086 10.677 10.3165C10.3403 10.6718 9.92627 10.9048 9.68167 11.3451C9.56329 11.5582 9.29402 11.7232 9.12448 11.8928C8.98543 12.0318 8.84499 12.313 8.66254 12.3738" stroke="black" stroke-linecap="round" stroke-linejoin="round"/>
<path d="M9.56265 10.702C9.59716 10.1614 9.92651 9.6557 10.096 9.14715C10.1351 9.03007 10.376 8.76152 10.3341 8.82093C9.63065 9.82063 8.95921 10.8421 8.25301 11.8402C8.09523 12.0632 7.8343 12.3406 7.75297 12.6117C7.66478 12.9057 8.10676 12.11 8.27682 11.8545C8.96958 10.8138 9.69227 9.78084 10.5127 8.83522C10.5833 8.7539 10.7312 8.52191 10.8485 8.48281C11.0103 8.42886 10.6705 8.77488 10.5651 8.90903C10.3037 9.24176 9.55884 10.2694 9.82458 9.94007C10.2898 9.36365 10.7374 8.76532 11.1628 8.15897C11.1879 8.12312 11.2626 8.02493 11.258 8.06848C11.2277 8.35967 11.0001 8.65147 10.8532 8.89237C10.697 9.14858 10.2414 9.91589 10.3413 9.63291C10.6136 8.86131 11.0802 8.14069 11.439 7.40652C11.6026 7.07188 11.795 6.62957 12.0486 6.34929C12.3555 6.01011 11.4715 7.05923 11.1914 7.42081C10.8951 7.80324 10.5661 8.15381 10.2579 8.52567C10.1842 8.61472 9.95761 8.90816 10.2056 8.63996C10.6073 8.20541 10.9769 7.74138 11.3438 7.27794C11.3928 7.21594 11.4266 7.17958 11.3318 7.28746C11.004 7.66081 10.6691 8.02768 10.3532 8.41137C10.1493 8.65909 9.95693 8.91603 9.75314 9.16382C9.65103 9.28797 9.51888 9.49323 9.62218 9.18763C9.76896 8.75341 10.0092 8.37234 10.2198 7.96848C10.2423 7.92541 10.5471 7.39442 10.508 7.34223C10.4726 7.29508 10.4226 7.42378 10.3841 7.46843C10.2567 7.61636 10.1114 7.7928 9.99126 7.94228C9.73298 8.26375 9.49879 8.60664 9.215 8.90665C9.18316 8.94031 9.05242 9.1294 9.10547 8.96142C9.19343 8.68287 9.36167 8.42695 9.48645 8.16373C9.59835 7.9277 9.81229 7.5976 9.83172 7.32556C9.8363 7.26142 9.34772 7.62145 9.2912 7.67797C9.18912 7.78005 9.42204 7.37236 9.45788 7.31604C9.53214 7.19935 9.58064 7.09745 9.68171 7.00649C10.3409 6.41324 11.5024 6.71599 12.3057 6.71599C12.5952 6.71599 12.6058 7.02069 12.6058 7.24699C12.6058 7.3968 12.3641 7.3589 12.2629 7.3589" stroke="black" stroke-linecap="round" stroke-linejoin="round"/>
</g>
<defs>
<clipPath id="clip0">
<rect width="15" height="15" fill="white"/>
</clipPath>
</defs>
</svg>
