<svg width="15" height="15" viewBox="0 0 15 15" fill="none" xmlns="http://www.w3.org/2000/svg">
<g clip-path="url(#clip0)">
<path d="M13.8305 2.37646C13.0406 1.56868 11.9841 1.12381 10.8555 1.12381C9.74426 1.12381 8.69944 1.55661 7.91347 2.34262L7.50782 2.74853L7.1018 2.3425C6.31588 1.55658 5.27127 1.12378 4.16036 1.12378C3.0491 1.12378 2.00432 1.55658 1.21846 2.3425C0.432715 3.12821 0 4.17291 0 5.28417C0 6.39543 0.432715 7.44013 1.21846 8.22584L6.41813 13.4255C6.71851 13.7258 7.11296 13.876 7.5075 13.876C7.90195 13.8759 8.29649 13.7258 8.59679 13.4255L13.763 8.25979C15.3856 6.63713 15.4159 3.99792 13.8305 2.37646ZM13.2183 7.71511L8.0521 12.8809C7.75178 13.1812 7.26311 13.1812 6.96281 12.8808L1.76312 7.68112C1.12286 7.0409 0.770273 6.18965 0.770273 5.28414C0.770273 4.37863 1.12286 3.52738 1.76312 2.88713C2.40349 2.24673 3.25485 1.89405 4.16036 1.89405C5.06552 1.89405 5.91671 2.24673 6.55711 2.88713L6.96334 3.29336L6.34128 3.91589C6.19093 4.06636 6.19104 4.31019 6.34148 4.46055C6.41669 4.53569 6.51519 4.57325 6.61371 4.57325C6.71235 4.57325 6.81094 4.53558 6.88614 4.46034L8.45815 2.8871C9.09855 2.2467 9.94989 1.89402 10.8554 1.89402C11.775 1.89402 12.6359 2.2566 13.2796 2.91493C14.5715 4.23613 14.5439 6.38945 13.2183 7.71511Z" fill="black"/>
</g>
<defs>
<clipPath id="clip0">
<rect width="15" height="15" fill="white"/>
</clipPath>
</defs>
</svg>
