<svg width="24" height="24" viewBox="0 0 24 24" fill="none" xmlns="http://www.w3.org/2000/svg">
<path d="M24 3V4.5H15V5.25C15 5.5625 14.9414 5.85547 14.8242 6.12891C14.707 6.40234 14.5469 6.64062 14.3438 6.84375C14.1406 7.04688 13.9023 7.20703 13.6289 7.32422C13.3555 7.44141 13.0625 7.5 12.75 7.5C12.4375 7.5 12.1445 7.44141 11.8711 7.32422C11.5977 7.20703 11.3594 7.04688 11.1562 6.84375C10.9531 6.64062 10.793 6.40234 10.6758 6.12891C10.5586 5.85547 10.5 5.5625 10.5 5.25V4.5H0V3H10.5V2.25C10.5 1.9375 10.5586 1.64453 10.6758 1.37109C10.793 1.09766 10.9531 0.859375 11.1562 0.65625C11.3594 0.453125 11.5977 0.292969 11.8711 0.175781C12.1445 0.0585938 12.4375 0 12.75 0C13.0625 0 13.3555 0.0585938 13.6289 0.175781C13.9023 0.292969 14.1406 0.453125 14.3438 0.65625C14.5469 0.859375 14.707 1.09766 14.8242 1.37109C14.9414 1.64453 15 1.9375 15 2.25V3H24ZM18.75 15C19.0625 15 19.3555 15.0586 19.6289 15.1758C19.9023 15.293 20.1406 15.4531 20.3438 15.6562C20.5469 15.8594 20.707 16.0977 20.8242 16.3711C20.9414 16.6445 21 16.9375 21 17.25V18H24V19.5H21V20.25C21 20.5625 20.9414 20.8555 20.8242 21.1289C20.707 21.4023 20.5469 21.6406 20.3438 21.8438C20.1406 22.0469 19.9023 22.207 19.6289 22.3242C19.3555 22.4414 19.0625 22.5 18.75 22.5C18.4375 22.5 18.1445 22.4414 17.8711 22.3242C17.5977 22.207 17.3594 22.0469 17.1562 21.8438C16.9531 21.6406 16.793 21.4023 16.6758 21.1289C16.5586 20.8555 16.5 20.5625 16.5 20.25V19.5H0V18H16.5V17.25C16.5 16.9375 16.5586 16.6445 16.6758 16.3711C16.793 16.0977 16.9531 15.8594 17.1562 15.6562C17.3594 15.4531 17.5977 15.293 17.8711 15.1758C18.1445 15.0586 18.4375 15 18.75 15ZM5.25 7.5C5.5625 7.5 5.85547 7.55859 6.12891 7.67578C6.40234 7.79297 6.64062 7.95312 6.84375 8.15625C7.04688 8.35938 7.20703 8.59766 7.32422 8.87109C7.44141 9.14453 7.5 9.4375 7.5 9.75V10.5H24V12H7.5V12.75C7.5 13.0625 7.44141 13.3555 7.32422 13.6289C7.20703 13.9023 7.04688 14.1406 6.84375 14.3438C6.64062 14.5469 6.40234 14.707 6.12891 14.8242C5.85547 14.9414 5.5625 15 5.25 15C4.9375 15 4.64453 14.9414 4.37109 14.8242C4.09766 14.707 3.85938 14.5469 3.65625 14.3438C3.45312 14.1406 3.29297 13.9023 3.17578 13.6289C3.05859 13.3555 3 13.0625 3 12.75V12H0V10.5H3V9.75C3 9.4375 3.05859 9.14453 3.17578 8.87109C3.29297 8.59766 3.45312 8.35938 3.65625 8.15625C3.85938 7.95312 4.09766 7.79297 4.37109 7.67578C4.64453 7.55859 4.9375 7.5 5.25 7.5ZM6 9.75C6 9.54687 5.92578 9.37109 5.77734 9.22266C5.62891 9.07422 5.45313 9 5.25 9C5.04687 9 4.87109 9.07422 4.72266 9.22266C4.57422 9.37109 4.5 9.54687 4.5 9.75V12.75C4.5 12.9531 4.57422 13.1289 4.72266 13.2773C4.87109 13.4258 5.04687 13.5 5.25 13.5C5.45313 13.5 5.62891 13.4258 5.77734 13.2773C5.92578 13.1289 6 12.9531 6 12.75V9.75ZM13.5 2.25C13.5 2.04687 13.4258 1.87109 13.2773 1.72266C13.1289 1.57422 12.9531 1.5 12.75 1.5C12.5469 1.5 12.3711 1.57422 12.2227 1.72266C12.0742 1.87109 12 2.04687 12 2.25V5.25C12 5.45313 12.0742 5.62891 12.2227 5.77734C12.3711 5.92578 12.5469 6 12.75 6C12.9531 6 13.1289 5.92578 13.2773 5.77734C13.4258 5.62891 13.5 5.45313 13.5 5.25V2.25ZM19.5 17.25C19.5 17.0469 19.4258 16.8711 19.2773 16.7227C19.1289 16.5742 18.9531 16.5 18.75 16.5C18.5469 16.5 18.3711 16.5742 18.2227 16.7227C18.0742 16.8711 18 17.0469 18 17.25V20.25C18 20.4531 18.0742 20.6289 18.2227 20.7773C18.3711 20.9258 18.5469 21 18.75 21C18.9531 21 19.1289 20.9258 19.2773 20.7773C19.4258 20.6289 19.5 20.4531 19.5 20.25V17.25Z" fill="black"/>
</svg>
