<svg width="140" height="43" viewBox="0 0 140 43" fill="none" xmlns="http://www.w3.org/2000/svg">
<g filter="url(#filter0_d)">
<path d="M65.6873 12V18.736C65.6873 20.2507 65.3086 21.3973 64.5513 22.176C63.8046 22.944 62.7326 23.328 61.3353 23.328C60.5139 23.328 59.7886 23.184 59.1593 22.896C58.5406 22.5973 58.0659 22.192 57.7353 21.68C57.3939 22.192 56.9193 22.5973 56.3113 22.896C55.7033 23.184 54.9833 23.328 54.1513 23.328C52.7539 23.328 51.6819 22.944 50.9353 22.176C50.1886 21.3973 49.8153 20.2507 49.8153 18.736V12H51.4153V18.688C51.4153 20.832 52.3273 21.904 54.1513 21.904C55.0366 21.904 55.7246 21.6427 56.2153 21.12C56.7059 20.5973 56.9513 19.7867 56.9513 18.688V12H58.5513V18.688C58.5513 19.7867 58.7913 20.5973 59.2713 21.12C59.7619 21.6427 60.4499 21.904 61.3353 21.904C63.1699 21.904 64.0873 20.832 64.0873 18.688V12H65.6873ZM78.8941 22.032C78.4141 22.4373 77.7848 22.7573 77.0061 22.992C76.2275 23.216 75.3795 23.328 74.4621 23.328C73.4381 23.328 72.5688 23.1947 71.8541 22.928C71.1395 22.6507 70.6008 22.272 70.2381 21.792C69.8755 21.312 69.6941 20.7573 69.6941 20.128C69.6941 19.488 69.8755 18.9387 70.2381 18.48C70.6115 18.0107 71.0915 17.6747 71.6781 17.472C71.2088 17.2587 70.8408 16.9387 70.5741 16.512C70.3075 16.0747 70.1741 15.5733 70.1741 15.008C70.1741 14.4213 70.3395 13.8933 70.6701 13.424C71.0115 12.9547 71.5235 12.5813 72.2061 12.304C72.8888 12.016 73.7208 11.872 74.7021 11.872C75.3955 11.872 76.0675 11.9467 76.7181 12.096C77.3795 12.2453 77.9501 12.4587 78.4301 12.736L77.9661 14.016C77.0061 13.504 75.9395 13.248 74.7661 13.248C73.7955 13.248 73.0541 13.424 72.5421 13.776C72.0301 14.1173 71.7741 14.5653 71.7741 15.12C71.7741 15.6747 71.9715 16.1013 72.3661 16.4C72.7608 16.6987 73.3261 16.848 74.0621 16.848H76.9421V18.224H73.9981C73.1555 18.224 72.4941 18.3733 72.0141 18.672C71.5341 18.9707 71.2941 19.4187 71.2941 20.016C71.2941 20.624 71.5661 21.0987 72.1101 21.44C72.6541 21.7813 73.4648 21.952 74.5421 21.952C75.2888 21.952 75.9981 21.8507 76.6701 21.648C77.3528 21.4347 77.9128 21.1467 78.3501 20.784L78.8941 22.032ZM91.6479 23.36C90.7839 23.36 89.9465 23.2373 89.1359 22.992C88.3359 22.7467 87.7012 22.4213 87.2319 22.016L87.9519 20.4C88.4105 20.7627 88.9705 21.0613 89.6319 21.296C90.3039 21.52 90.9759 21.632 91.6479 21.632C92.4799 21.632 93.0985 21.4987 93.5039 21.232C93.9199 20.9653 94.1279 20.6133 94.1279 20.176C94.1279 19.856 94.0105 19.5947 93.7759 19.392C93.5519 19.1787 93.2639 19.0133 92.9119 18.896C92.5599 18.7787 92.0799 18.6453 91.4719 18.496C90.6185 18.2933 89.9252 18.0907 89.3919 17.888C88.8692 17.6853 88.4159 17.3707 88.0319 16.944C87.6585 16.5067 87.4719 15.92 87.4719 15.184C87.4719 14.5653 87.6372 14.0053 87.9679 13.504C88.3092 12.992 88.8159 12.5867 89.4879 12.288C90.1705 11.9893 91.0025 11.84 91.9839 11.84C92.6665 11.84 93.3385 11.9253 93.9999 12.096C94.6612 12.2667 95.2319 12.512 95.7119 12.832L95.0559 14.448C94.5652 14.16 94.0532 13.9413 93.5199 13.792C92.9865 13.6427 92.4692 13.568 91.9679 13.568C91.1465 13.568 90.5332 13.7067 90.1279 13.984C89.7332 14.2613 89.5359 14.6293 89.5359 15.088C89.5359 15.408 89.6479 15.6693 89.8719 15.872C90.1065 16.0747 90.3999 16.2347 90.7519 16.352C91.1039 16.4693 91.5839 16.6027 92.1919 16.752C93.0239 16.944 93.7065 17.1467 94.2399 17.36C94.7732 17.5627 95.2265 17.8773 95.5999 18.304C95.9839 18.7307 96.1759 19.3067 96.1759 20.032C96.1759 20.6507 96.0052 21.2107 95.6639 21.712C95.3332 22.2133 94.8265 22.6133 94.1439 22.912C93.4612 23.2107 92.6292 23.36 91.6479 23.36ZM104.718 11.84C105.721 11.84 106.596 12.0373 107.342 12.432C108.089 12.8267 108.665 13.4133 109.07 14.192C109.486 14.96 109.694 15.8933 109.694 16.992V23.2H107.614V20.32H101.79V23.2H99.7424V16.992C99.7424 15.8933 99.945 14.96 100.35 14.192C100.766 13.4133 101.348 12.8267 102.094 12.432C102.841 12.0373 103.716 11.84 104.718 11.84ZM107.614 18.576V16.8C107.614 15.7653 107.358 14.9867 106.846 14.464C106.334 13.9307 105.62 13.664 104.702 13.664C103.785 13.664 103.07 13.9307 102.558 14.464C102.046 14.9867 101.79 15.7653 101.79 16.8V18.576H107.614ZM124.131 12L119.251 23.2H117.203L112.307 12H114.563L118.291 20.64L122.051 12H124.131ZM135.524 22.128C135.023 22.5227 134.378 22.8267 133.588 23.04C132.799 23.2533 131.946 23.36 131.028 23.36C129.951 23.36 129.034 23.2213 128.276 22.944C127.53 22.6667 126.964 22.2827 126.58 21.792C126.196 21.3013 126.004 20.736 126.004 20.096C126.004 19.4773 126.175 18.9387 126.516 18.48C126.858 18.0213 127.316 17.6853 127.892 17.472C127.455 17.2373 127.108 16.912 126.852 16.496C126.607 16.0693 126.484 15.5947 126.484 15.072C126.484 14.4747 126.66 13.936 127.012 13.456C127.375 12.9653 127.914 12.576 128.628 12.288C129.343 11.9893 130.223 11.84 131.268 11.84C131.972 11.84 132.66 11.9147 133.332 12.064C134.004 12.2133 134.591 12.416 135.092 12.672L134.5 14.32C133.562 13.8293 132.511 13.584 131.348 13.584C130.431 13.584 129.738 13.7333 129.268 14.032C128.81 14.32 128.58 14.7093 128.58 15.2C128.58 15.68 128.751 16.048 129.092 16.304C129.434 16.5493 129.935 16.672 130.596 16.672H133.556V18.4H130.484C129.727 18.4 129.14 18.5333 128.724 18.8C128.308 19.056 128.1 19.44 128.1 19.952C128.1 20.464 128.351 20.8693 128.852 21.168C129.354 21.4667 130.111 21.616 131.124 21.616C131.828 21.616 132.511 21.52 133.172 21.328C133.844 21.136 134.404 20.8693 134.852 20.528L135.524 22.128Z" fill="black"/>
</g>
<g filter="url(#filter1_d)">
<rect x="4.5" y="0.5" width="81" height="34" rx="17" stroke="url(#paint0_linear)"/>
</g>
<defs>
<filter id="filter0_d" x="45.8154" y="11.84" width="93.7091" height="19.52" filterUnits="userSpaceOnUse" color-interpolation-filters="sRGB">
<feFlood flood-opacity="0" result="BackgroundImageFix"/>
<feColorMatrix in="SourceAlpha" type="matrix" values="0 0 0 0 0 0 0 0 0 0 0 0 0 0 0 0 0 0 127 0"/>
<feOffset dy="4"/>
<feGaussianBlur stdDeviation="2"/>
<feColorMatrix type="matrix" values="0 0 0 0 0 0 0 0 0 0 0 0 0 0 0 0 0 0 0.25 0"/>
<feBlend mode="normal" in2="BackgroundImageFix" result="effect1_dropShadow"/>
<feBlend mode="normal" in="SourceGraphic" in2="effect1_dropShadow" result="shape"/>
</filter>
<filter id="filter1_d" x="0" y="0" width="90" height="43" filterUnits="userSpaceOnUse" color-interpolation-filters="sRGB">
<feFlood flood-opacity="0" result="BackgroundImageFix"/>
<feColorMatrix in="SourceAlpha" type="matrix" values="0 0 0 0 0 0 0 0 0 0 0 0 0 0 0 0 0 0 127 0"/>
<feOffset dy="4"/>
<feGaussianBlur stdDeviation="2"/>
<feColorMatrix type="matrix" values="0 0 0 0 0 0 0 0 0 0 0 0 0 0 0 0 0 0 0.25 0"/>
<feBlend mode="normal" in2="BackgroundImageFix" result="effect1_dropShadow"/>
<feBlend mode="normal" in="SourceGraphic" in2="effect1_dropShadow" result="shape"/>
</filter>
<linearGradient id="paint0_linear" x1="19.1187" y1="10.3958" x2="84.7952" y2="65.9474" gradientUnits="userSpaceOnUse">
<stop stop-color="#C21500"/>
<stop offset="0.9999" stop-color="#E27200"/>
<stop offset="1" stop-color="#FFC500"/>
</linearGradient>
</defs>
</svg>
