<svg width="20" height="20" viewBox="0 0 20 20" fill="none" xmlns="http://www.w3.org/2000/svg">
<g clip-path="url(#clip0)">
<path d="M2.92782 2.92824C6.82719 -0.971196 13.172 -0.971196 17.0714 2.92824C18.4395 4.29636 19.3754 6.01515 19.7779 7.89886C20.1697 9.73305 20.0414 11.6334 19.4067 13.3943C19.3305 13.6058 19.0972 13.7154 18.8858 13.6392C18.6743 13.5629 18.5646 13.3297 18.6409 13.1183C19.224 11.5003 19.3419 9.75435 18.9818 8.06887C18.6123 6.33923 17.7526 4.76059 16.4958 3.50379C12.9138 -0.0782206 7.08545 -0.0782206 3.50344 3.50379C1.79761 5.20969 0.842695 7.47724 0.814676 9.88888C0.786659 12.2961 1.68377 14.5818 3.34063 16.3247C3.36023 16.3453 3.37963 16.3661 3.39904 16.3868C3.43336 16.4236 3.46762 16.4603 3.50344 16.4961C7.08545 20.0781 12.9138 20.0781 16.4958 16.4961C16.5149 16.4771 16.5334 16.4577 16.5518 16.4383C16.5528 16.4007 16.5536 16.3636 16.5536 16.3272C16.5536 16.2452 16.552 16.1636 16.549 16.0822C16.548 16.055 16.546 16.0281 16.5446 16.001C16.542 15.9469 16.5395 15.8928 16.5355 15.839C16.5332 15.807 16.5297 15.7752 16.5269 15.7433C16.5226 15.6947 16.5186 15.6462 16.5133 15.598C16.5096 15.564 16.5047 15.5302 16.5004 15.4962C16.4946 15.4505 16.4891 15.4045 16.4824 15.3589C16.4772 15.3242 16.4711 15.2898 16.4654 15.2553C16.4581 15.2108 16.4511 15.1664 16.4429 15.1222C16.4364 15.0873 16.429 15.0527 16.422 15.018C16.4132 14.9746 16.4046 14.9312 16.395 14.8881C16.3872 14.8532 16.3785 14.8185 16.3702 14.7837C16.36 14.7413 16.3499 14.6989 16.3389 14.6569C16.3297 14.622 16.3198 14.5874 16.3102 14.5527C16.2986 14.5112 16.287 14.4696 16.2746 14.4284C16.2643 14.3938 16.2531 14.3595 16.2421 14.3251C16.2291 14.2844 16.2161 14.2435 16.2023 14.2031C16.1906 14.169 16.1784 14.135 16.1662 14.1011C16.1518 14.061 16.1373 14.0208 16.1221 13.9809C16.1092 13.9472 16.0958 13.9138 16.0824 13.8804C16.0666 13.841 16.0506 13.8015 16.0341 13.7625C16.02 13.7292 16.0054 13.6963 15.9908 13.6633C15.9736 13.6245 15.9563 13.5859 15.9383 13.5476C15.9231 13.515 15.9075 13.4826 15.8917 13.4502C15.8731 13.4121 15.8543 13.3741 15.835 13.3365C15.8187 13.3046 15.8021 13.2729 15.7852 13.2413C15.7652 13.2038 15.7449 13.1665 15.7242 13.1294C15.7068 13.0982 15.6892 13.0671 15.6713 13.0362C15.65 12.9995 15.6283 12.963 15.6063 12.9267C15.5878 12.8961 15.569 12.8658 15.55 12.8355C15.5274 12.7995 15.5044 12.7638 15.481 12.7283C15.4615 12.6985 15.4418 12.6689 15.4218 12.6394C15.3979 12.6042 15.3734 12.5693 15.3487 12.5345C15.3281 12.5055 15.3076 12.4766 15.2865 12.4481C15.2612 12.4136 15.2354 12.3795 15.2094 12.3456C15.1879 12.3175 15.1665 12.2894 15.1445 12.2616C15.1178 12.2279 15.0906 12.1946 15.0632 12.1614C15.0409 12.1343 15.0186 12.1072 14.9958 12.0804C14.9677 12.0474 14.939 12.0149 14.9102 11.9825C14.887 11.9563 14.864 11.93 14.8404 11.9043C14.8109 11.8721 14.7809 11.8406 14.7507 11.809C14.7267 11.7838 14.7029 11.7585 14.6784 11.7336C14.6476 11.7022 14.616 11.6716 14.5845 11.6408C14.5598 11.6167 14.5354 11.5923 14.5103 11.5686C14.4778 11.5379 14.4447 11.508 14.4116 11.478C14.3864 11.4552 14.3615 11.432 14.3359 11.4095C14.3018 11.3795 14.2668 11.3503 14.232 11.3209C14.2065 11.2994 14.1812 11.2776 14.1554 11.2564C14.1194 11.2269 14.0825 11.1984 14.0457 11.1696C14.02 11.1496 13.9948 11.1291 13.9689 11.1095C13.9302 11.0801 13.8906 11.0517 13.8511 11.0232C13.8262 11.0052 13.8018 10.9867 13.7766 10.969C13.733 10.9384 13.6884 10.9089 13.644 10.8793C13.6221 10.8647 13.6007 10.8496 13.5786 10.8352C13.5207 10.7975 13.4617 10.7611 13.4024 10.7251C13.3931 10.7196 13.3842 10.7136 13.3749 10.708C13.3062 10.6669 13.2366 10.627 13.1662 10.5882C13.1421 10.575 13.1174 10.5626 13.093 10.5496C13.0463 10.5247 12.9997 10.4995 12.9521 10.4756C12.9216 10.4603 12.8904 10.4459 12.8597 10.4311C12.8209 10.4123 12.7822 10.3933 12.743 10.3752C12.0052 11.0799 11.021 11.4788 9.99951 11.4788C8.97798 11.4788 7.99376 11.0798 7.256 10.375C5.81583 11.0415 4.63711 12.2375 3.99718 13.6918C3.90668 13.8975 3.6666 13.9911 3.4607 13.9005C3.25495 13.81 3.16153 13.5697 3.2521 13.364C3.95207 11.7732 5.17067 10.5019 6.71315 9.73454C6.26561 9.07806 6.02349 8.30285 6.02349 7.50288C6.02349 5.3105 7.80713 3.52686 9.99951 3.52686C10.2243 3.52686 10.4066 3.70914 10.4066 3.9339C10.4066 4.15865 10.2243 4.34093 9.99951 4.34093C8.25596 4.34093 6.83757 5.7594 6.83757 7.50288C6.83757 8.2825 7.12731 9.03321 7.65334 9.61657C7.65341 9.61664 7.65348 9.6167 7.65354 9.61677C8.2542 10.2828 9.10925 10.6648 9.99958 10.6648C10.8899 10.6648 11.745 10.2828 12.3456 9.61677C12.3457 9.61664 12.3458 9.61657 12.346 9.6165C12.8719 9.03294 13.1616 8.28243 13.1616 7.50295C13.1616 6.65197 12.8284 5.85363 12.2234 5.25514C12.0636 5.09701 12.0623 4.83929 12.2204 4.67952C12.3785 4.51962 12.6362 4.5184 12.796 4.6764C13.5567 5.42875 13.9757 6.43257 13.9757 7.50268C13.9757 8.30183 13.7342 9.0765 13.2874 9.73264C13.2914 9.73461 13.2952 9.73678 13.2992 9.73882C13.3309 9.75469 13.3619 9.77151 13.3934 9.78773C13.4416 9.81269 13.49 9.83752 13.5376 9.86351C13.5712 9.88182 13.6041 9.90109 13.6374 9.91988C13.6819 9.94505 13.7264 9.97008 13.7702 9.99607C13.8042 10.0163 13.8376 10.0372 13.8713 10.0579C13.9133 10.0838 13.9554 10.1096 13.9968 10.1363C14.0307 10.1581 14.0639 10.1805 14.0974 10.2027C14.1376 10.2295 14.1778 10.2564 14.2174 10.284C14.2507 10.3072 14.2836 10.3309 14.3165 10.3545C14.3552 10.3824 14.3937 10.4104 14.4318 10.439C14.4644 10.4635 14.4966 10.4883 14.5288 10.5133C14.5661 10.5422 14.6031 10.5714 14.6398 10.6011C14.6715 10.6267 14.703 10.6527 14.7343 10.6788C14.7704 10.7089 14.8061 10.7394 14.8415 10.7702C14.8722 10.7968 14.9028 10.8237 14.933 10.8509C14.968 10.8823 15.0024 10.9141 15.0367 10.9461C15.0663 10.9737 15.0958 11.0014 15.1249 11.0295C15.1588 11.0622 15.1921 11.0954 15.2254 11.1287C15.2537 11.1571 15.2821 11.1855 15.3099 11.2143C15.3428 11.2485 15.3751 11.2832 15.4073 11.3179C15.4342 11.347 15.4614 11.3759 15.4878 11.4054C15.52 11.4412 15.5514 11.4778 15.5829 11.5142C15.6082 11.5435 15.6337 11.5725 15.6585 11.6022C15.6905 11.6404 15.7214 11.6793 15.7525 11.7181C15.7757 11.747 15.7993 11.7755 15.822 11.8047C15.8547 11.8468 15.8863 11.8897 15.9181 11.9324C15.938 11.9593 15.9585 11.9857 15.978 12.0128C16.0182 12.0684 16.0571 12.1249 16.0956 12.1816C16.1057 12.1965 16.1164 12.211 16.1265 12.226C16.1744 12.2977 16.221 12.3701 16.2664 12.4434C16.2821 12.4687 16.2968 12.4945 16.3121 12.52C16.3415 12.5688 16.371 12.6175 16.3993 12.6669C16.417 12.6978 16.4336 12.7292 16.4508 12.7603C16.4756 12.8051 16.5005 12.8497 16.5242 12.8951C16.5419 12.9286 16.5585 12.9626 16.5757 12.9965C16.5978 13.0402 16.62 13.0838 16.6412 13.128C16.6581 13.1631 16.6742 13.1986 16.6906 13.234C16.7106 13.2776 16.7308 13.3212 16.7501 13.3652C16.7659 13.4015 16.7811 13.4381 16.7964 13.4747C16.8148 13.5186 16.833 13.5625 16.8505 13.6067C16.8652 13.6439 16.8794 13.6813 16.8935 13.7186C16.9102 13.763 16.9266 13.8074 16.9425 13.8521C16.9559 13.8901 16.969 13.9282 16.9819 13.9664C16.997 14.0112 17.0117 14.0562 17.026 14.1015C17.0381 14.1399 17.0498 14.1785 17.0614 14.2172C17.0749 14.2629 17.088 14.3086 17.1007 14.3546C17.1114 14.3934 17.122 14.4323 17.1321 14.4714C17.1441 14.5179 17.1555 14.5645 17.1666 14.6113C17.1759 14.6504 17.1851 14.6894 17.1937 14.7286C17.2042 14.7761 17.2139 14.8238 17.2234 14.8715C17.2312 14.9106 17.2391 14.9497 17.2463 14.9889C17.2552 15.0377 17.2632 15.0866 17.2711 15.1357C17.2774 15.1743 17.284 15.2129 17.2896 15.2518C17.297 15.3024 17.3032 15.3532 17.3096 15.4041C17.3143 15.4418 17.3194 15.4795 17.3236 15.5173C17.3294 15.5707 17.3339 15.6243 17.3386 15.678C17.3417 15.7137 17.3454 15.7494 17.348 15.7853C17.3523 15.8452 17.3552 15.9054 17.3581 15.9656C17.3595 15.9955 17.3618 16.0253 17.3629 16.0552C17.3661 16.1456 17.3679 16.2363 17.3679 16.3274C17.3679 16.4257 17.3646 16.5186 17.3606 16.6212C17.3597 16.645 17.3563 16.668 17.3516 16.6906C17.3512 16.6923 17.351 16.6941 17.3506 16.6959C17.3456 16.718 17.3385 16.7393 17.33 16.76C17.3292 16.762 17.3285 16.764 17.3276 16.7661C17.3188 16.7864 17.3084 16.8058 17.2966 16.8243C17.2951 16.8266 17.2937 16.8289 17.2922 16.8311C17.28 16.8492 17.2665 16.8663 17.2518 16.8821C17.2507 16.8833 17.25 16.8847 17.2489 16.8859L17.1952 16.9431C17.1546 16.9865 17.114 17.0298 17.0717 17.072C15.122 19.0217 12.5609 19.9966 9.99985 19.9966C7.43876 19.9966 4.87774 19.0217 2.92802 17.072C2.88569 17.0298 2.84513 16.9864 2.80456 16.9431L2.75083 16.8859C0.947033 14.9883 -0.0295906 12.5002 0.000869751 9.87972C0.0311947 7.25398 1.07077 4.78529 2.92782 2.92824Z" fill="black"/>
</g>
<defs>
<clipPath id="clip0">
<rect width="20" height="20" fill="white" transform="matrix(-1 0 0 1 20 0)"/>
</clipPath>
</defs>
</svg>
