<svg width="20" height="20" viewBox="0 0 20 20" fill="none" xmlns="http://www.w3.org/2000/svg">
<path d="M17.3001 14.7677C16.8773 14.3811 16.6348 13.833 16.6348 13.264V9.37498C16.6348 9.15928 16.4599 8.98435 16.2441 8.98435C16.0284 8.98435 15.8535 9.15928 15.8535 9.37498V13.264C15.8535 14.0519 16.1887 14.8101 16.773 15.3443C16.9831 15.5363 17.1035 15.8095 17.1035 16.0939C17.1035 16.6538 16.6479 17.1094 16.088 17.1094H3.90032C3.34035 17.1094 2.88477 16.6538 2.88477 16.0939C2.88477 15.8095 3.0052 15.5364 3.21524 15.3443C3.79961 14.8101 4.13477 14.0519 4.13477 13.264V8.74998C4.13477 5.51911 6.76329 2.89059 9.99416 2.89059C10.8828 2.89059 11.758 3.09266 12.5506 3.477C12.2751 3.91958 12.1154 4.44138 12.1154 4.99997C12.1154 6.59388 13.4121 7.8906 15.006 7.8906C16.5999 7.8906 17.8966 6.59388 17.8966 4.99997C17.8966 3.40606 16.5999 2.10934 15.006 2.10934C14.259 2.10934 13.5773 2.39418 13.0637 2.86094C12.4814 2.55723 11.8568 2.34247 11.2117 2.2225C11.3556 1.99789 11.4395 1.73125 11.4395 1.44528C11.4395 0.648361 10.7911 0 9.99416 0C9.1972 0 8.54884 0.648361 8.54884 1.44528C8.54884 1.73094 8.63247 1.99727 8.77607 2.22176C5.69419 2.7954 3.35352 5.50431 3.35352 8.74998V13.264C3.35352 13.833 3.11102 14.3811 2.68813 14.7677C2.3166 15.1073 2.10352 15.5907 2.10352 16.0938C2.10352 17.0846 2.90957 17.8906 3.90032 17.8906H7.52486C7.71298 19.0842 8.74853 20 9.99416 20C11.2398 20 12.2753 19.0842 12.4635 17.8906H16.088C17.0787 17.8906 17.8848 17.0846 17.8848 16.0938C17.8848 15.5907 17.6717 15.1073 17.3001 14.7677ZM15.006 2.89059C16.1691 2.89059 17.1153 3.83688 17.1153 4.99997C17.1153 6.16306 16.1691 7.10935 15.006 7.10935C13.8428 7.10935 12.8966 6.16306 12.8966 4.99997C12.8966 3.83688 13.8428 2.89059 15.006 2.89059ZM9.99416 0.781213C10.3603 0.781213 10.6582 1.0791 10.6582 1.44524C10.6582 1.81141 10.3603 2.1093 9.99416 2.1093C9.62798 2.1093 9.33009 1.81141 9.33009 1.44524C9.33009 1.0791 9.62798 0.781213 9.99416 0.781213ZM9.99416 19.2188C9.18083 19.2188 8.49814 18.6507 8.32072 17.8906H11.6676C11.4902 18.6507 10.8075 19.2188 9.99416 19.2188Z" fill="black"/>
<path d="M5.61914 8.35123C5.4034 8.35123 5.22852 8.52615 5.22852 8.74185V8.74998C5.22852 8.96568 5.4034 9.1406 5.61914 9.1406C5.83488 9.1406 6.00977 8.96568 6.00977 8.74998V8.74185C6.00977 8.52615 5.83488 8.35123 5.61914 8.35123Z" fill="black"/>
<path d="M9.9939 3.98434C8.07706 3.98434 6.35444 5.1245 5.60537 6.88912C5.52108 7.08767 5.61373 7.31701 5.81229 7.40131C5.86209 7.42244 5.91385 7.43248 5.96475 7.43248C6.11678 7.43248 6.26135 7.34314 6.32452 7.19439C6.95084 5.71896 8.39116 4.7656 9.9939 4.7656C10.2096 4.7656 10.3845 4.59067 10.3845 4.37497C10.3845 4.15927 10.2096 3.98434 9.9939 3.98434Z" fill="black"/>
<path d="M15.1436 3.73411C14.9977 3.6738 14.8297 3.70708 14.7179 3.8188L14.2687 4.26802C14.1162 4.42056 14.1162 4.66791 14.2687 4.82048C14.3599 4.91162 14.485 4.94841 14.6035 4.93048V5.63799C14.6035 5.85369 14.7784 6.02861 14.9941 6.02861C15.2099 6.02861 15.3848 5.85369 15.3848 5.63799V4.09501C15.3848 3.93701 15.2896 3.79458 15.1436 3.73411Z" fill="url(#paint0_linear)"/>
<defs>
<linearGradient id="paint0_linear" x1="14.3812" y1="4.39477" x2="16.0122" y2="4.70651" gradientUnits="userSpaceOnUse">
<stop stop-color="#C21500"/>
<stop offset="0.9999" stop-color="#E27200"/>
<stop offset="1" stop-color="#FFC500"/>
</linearGradient>
</defs>
</svg>
