<svg width="20" height="20" viewBox="0 0 20 20" fill="none" xmlns="http://www.w3.org/2000/svg">
<g clip-path="url(#clip0)">
<path d="M20 4.04713C20 3.88498 19.8686 3.75354 19.7064 3.75354C19.5443 3.75354 19.4128 3.88498 19.4128 4.04713C19.4128 5.54405 18.195 6.7619 16.6981 6.7619C15.2011 6.7619 13.9833 5.54405 13.9833 4.04713C13.9833 2.55022 15.2011 1.33237 16.6981 1.33237C17.7345 1.33237 18.6659 1.90893 19.129 2.83705C19.2014 2.98217 19.3778 3.04112 19.5227 2.96869C19.6679 2.89631 19.7268 2.72002 19.6544 2.57494C19.0913 1.44631 17.9585 0.745178 16.6981 0.745178C14.8774 0.745178 13.3961 2.22643 13.3961 4.04713C13.3961 4.07065 13.3974 4.09381 13.3979 4.11721H5.47071C5.30857 4.11721 5.17712 4.24865 5.17712 4.4108C5.17712 4.57295 5.30857 4.7044 5.47071 4.7044H13.462C13.61 5.43416 13.9999 6.07674 14.5434 6.54608L8.81423 12.6754C8.72071 12.7754 8.59372 12.8305 8.45677 12.8305C8.31981 12.8305 8.19286 12.7754 8.09931 12.6754L0.758955 4.82233C0.844541 4.74901 0.95544 4.70436 1.07673 4.70436H4.01989C4.18204 4.70436 4.31349 4.57291 4.31349 4.41076C4.31349 4.24862 4.18204 4.11717 4.01989 4.11717H1.07669C0.483135 4.11717 0.000205452 4.6001 0.000205452 5.19365V15.4946C-0.0117477 16.0714 0.49962 16.5829 1.07669 16.5711H9.90349L11.2552 18.9123C11.379 19.1267 11.6008 19.2548 11.8484 19.2548H11.8484C12.0961 19.2548 12.3178 19.1268 12.4417 18.9123L13.7933 16.5711H15.8368C16.4135 16.5831 16.9251 16.0715 16.9133 15.4946V7.34131C18.634 7.2299 20 5.79545 20 4.04713ZM5.06716 10.2913L0.587393 15.0839V5.49869L5.06716 10.2913ZM15.8369 15.984H13.7368C13.5626 15.984 13.4003 16.0777 13.3131 16.2286L11.9332 18.6187C11.9086 18.6613 11.8695 18.6677 11.8484 18.6677C11.8274 18.6677 11.7883 18.6614 11.7637 18.6187L10.3837 16.2285C10.2966 16.0777 10.1342 15.984 9.96001 15.984H1.07669C0.933916 15.9869 0.800245 15.9187 0.708682 15.814L5.46903 10.7212L7.67036 13.0763C7.87317 13.2933 8.15978 13.4177 8.45677 13.4177C8.75376 13.4177 9.0404 13.2933 9.24321 13.0763L11.4445 10.7213L13.8983 13.3465C14.0093 13.4651 14.1951 13.471 14.3133 13.3605C14.4318 13.2497 14.438 13.064 14.3273 12.9455L11.8464 10.2913L15.0241 6.89166C15.4142 7.12205 15.8552 7.27455 16.3262 7.3276V15.084L15.273 13.9572C15.1623 13.8388 14.9765 13.8325 14.8581 13.9432C14.7396 14.054 14.7333 14.2397 14.844 14.3582L16.2035 15.8126C16.1189 15.9147 15.9946 15.9734 15.8369 15.984Z" fill="black"/>
<path d="M16.7529 5.82972C16.915 5.82972 17.0464 5.69827 17.0464 5.53612V2.87135C17.0464 2.7092 16.915 2.57776 16.7529 2.57776H16.1832C16.0211 2.57776 15.8896 2.7092 15.8896 2.87135C15.8896 3.0335 16.0211 3.16495 16.1832 3.16495H16.4593V5.53612C16.4593 5.69827 16.5907 5.82972 16.7529 5.82972Z" fill="url(#paint0_linear)"/>
</g>
<defs>
<linearGradient id="paint0_linear" x1="16.1029" y1="3.54367" x2="17.6665" y2="3.74448" gradientUnits="userSpaceOnUse">
<stop stop-color="#C21500"/>
<stop offset="0.9999" stop-color="#E27200"/>
<stop offset="1" stop-color="#FFC500"/>
</linearGradient>
<clipPath id="clip0">
<rect width="20" height="20" fill="white"/>
</clipPath>
</defs>
</svg>
