<svg width="30" height="30" viewBox="0 0 30 30" fill="none" xmlns="http://www.w3.org/2000/svg">
<g clip-path="url(#clip0)">
<path d="M12.5789 23.6033C11.124 23.6033 9.94043 24.7869 9.94043 26.2417C9.94043 27.6965 11.124 28.8801 12.5789 28.8801C14.0337 28.8801 15.2173 27.6965 15.2173 26.2417C15.2172 24.7869 14.0336 23.6033 12.5789 23.6033ZM12.5789 27.4068C11.9363 27.4068 11.4136 26.8841 11.4136 26.2416C11.4136 25.599 11.9364 25.0763 12.5789 25.0763C13.2213 25.0763 13.7441 25.5991 13.7441 26.2416C13.7441 26.8842 13.2213 27.4068 12.5789 27.4068Z" fill="url(#paint0_linear)"/>
<path d="M21.8347 23.6033C20.3799 23.6033 19.1963 24.7869 19.1963 26.2417C19.1963 27.6965 20.3799 28.8801 21.8347 28.8801C23.2895 28.8801 24.4731 27.6965 24.4731 26.2417C24.4731 24.7869 23.2895 23.6033 21.8347 23.6033ZM21.8347 27.4068C21.1922 27.4068 20.6695 26.8841 20.6695 26.2416C20.6695 25.599 21.1922 25.0763 21.8347 25.0763C22.4773 25.0763 23 25.5991 23 26.2416C23 26.8842 22.4772 27.4068 21.8347 27.4068Z" fill="url(#paint1_linear)"/>
<path d="M22.4836 9.71222H11.928C11.5212 9.71222 11.1914 10.042 11.1914 10.4488C11.1914 10.8556 11.5212 11.1854 11.928 11.1854H22.4836C22.8904 11.1854 23.2202 10.8556 23.2202 10.4488C23.2202 10.0419 22.8904 9.71222 22.4836 9.71222Z" fill="url(#paint2_linear)"/>
<path d="M21.9088 13.5372H12.5022C12.0954 13.5372 11.7656 13.867 11.7656 14.2738C11.7656 14.6806 12.0954 15.0104 12.5022 15.0104H21.9087C22.3155 15.0104 22.6453 14.6806 22.6453 14.2738C22.6453 13.8671 22.3155 13.5372 21.9088 13.5372Z" fill="url(#paint3_linear)"/>
<path d="M29.6685 6.4303C29.3876 6.08553 28.9713 5.88784 28.5265 5.88784H5.58273L5.11937 3.63848C5.02263 3.16926 4.70259 2.77527 4.26308 2.58443L1.03005 1.18111C0.656804 1.01898 0.223034 1.19025 0.0611397 1.56337C-0.100931 1.93662 0.0703389 2.37045 0.443406 2.53234L3.67649 3.93572L7.24052 21.2362C7.38091 21.9175 7.98771 22.4121 8.68339 22.4121H26.3299C26.7367 22.4121 27.0664 22.0823 27.0664 21.6755C27.0664 21.2687 26.7367 20.9389 26.3299 20.9389H8.68345L8.24992 18.8344H26.4663C27.1619 18.8344 27.7687 18.3399 27.9091 17.6586L29.9694 7.65807C30.0591 7.2226 29.9494 6.775 29.6685 6.4303ZM26.4663 17.3614H7.94646L5.88624 7.36094L28.5265 7.361L26.4663 17.3614Z" fill="url(#paint4_linear)"/>
</g>
<defs>
<linearGradient id="paint0_linear" x1="10.9133" y1="25.1706" x2="17.3275" y2="27.4863" gradientUnits="userSpaceOnUse">
<stop stop-color="#C21500"/>
<stop offset="0.9999" stop-color="#E27200"/>
<stop offset="1" stop-color="#FFC500"/>
</linearGradient>
<linearGradient id="paint1_linear" x1="20.1692" y1="25.1706" x2="26.5833" y2="27.4863" gradientUnits="userSpaceOnUse">
<stop stop-color="#C21500"/>
<stop offset="0.9999" stop-color="#E27200"/>
<stop offset="1" stop-color="#FFC500"/>
</linearGradient>
<linearGradient id="paint2_linear" x1="13.4092" y1="10.1498" x2="15.1148" y2="15.1776" gradientUnits="userSpaceOnUse">
<stop stop-color="#C21500"/>
<stop offset="0.9999" stop-color="#E27200"/>
<stop offset="1" stop-color="#FFC500"/>
</linearGradient>
<linearGradient id="paint3_linear" x1="13.7716" y1="13.9748" x2="15.615" y2="18.8898" gradientUnits="userSpaceOnUse">
<stop stop-color="#C21500"/>
<stop offset="0.9999" stop-color="#E27200"/>
<stop offset="1" stop-color="#FFC500"/>
</linearGradient>
<linearGradient id="paint4_linear" x1="5.53125" y1="7.4442" x2="38.2768" y2="24.1012" gradientUnits="userSpaceOnUse">
<stop stop-color="#C21500"/>
<stop offset="0.9999" stop-color="#E27200"/>
<stop offset="1" stop-color="#FFC500"/>
</linearGradient>
<clipPath id="clip0">
<rect width="30" height="30" fill="white"/>
</clipPath>
</defs>
</svg>
