<svg width="15" height="15" viewBox="0 0 15 15" fill="none" xmlns="http://www.w3.org/2000/svg">
<g clip-path="url(#clip0)">
<path d="M8.32868 7.50079L14.8284 1.00105C15.0572 0.772215 15.0572 0.401199 14.8284 0.172391C14.5996 -0.0564172 14.2285 -0.0564465 13.9997 0.172391L7.49999 6.67213L1.00029 0.172391C0.771451 -0.0564465 0.400436 -0.0564465 0.171628 0.172391C-0.0571801 0.401229 -0.0572094 0.772244 0.171628 1.00105L6.67133 7.50076L0.171628 14.0005C-0.0572094 14.2293 -0.0572094 14.6004 0.171628 14.8292C0.286032 14.9436 0.436003 15.0008 0.585973 15.0008C0.735943 15.0008 0.885885 14.9436 1.00032 14.8292L7.49999 8.32945L13.9997 14.8292C14.1141 14.9436 14.2641 15.0008 14.414 15.0008C14.564 15.0008 14.714 14.9436 14.8284 14.8292C15.0572 14.6003 15.0572 14.2293 14.8284 14.0005L8.32868 7.50079Z" fill="white"/>
</g>
<defs>
<clipPath id="clip0">
<rect width="15" height="15" fill="white"/>
</clipPath>
</defs>
</svg>
