<svg width="30" height="30" viewBox="0 0 30 30" fill="none" xmlns="http://www.w3.org/2000/svg">
<g clip-path="url(#clip0)">
<path d="M27.6609 4.75315C26.0812 3.13761 23.9682 2.24786 21.711 2.24786C19.4885 2.24786 17.3989 3.11347 15.8269 4.68548L15.0156 5.49729L14.2036 4.68524C12.6318 3.11341 10.5425 2.2478 8.32072 2.2478C6.0982 2.2478 4.00863 3.11341 2.43691 4.68524C0.86543 6.25667 0 8.34606 0 10.5686C0 12.7911 0.86543 14.8805 2.43691 16.4519L12.8363 26.8512C13.437 27.4518 14.2259 27.7522 15.015 27.7522C15.8039 27.7521 16.593 27.4518 17.1936 26.8513L27.5259 16.5198C30.7712 13.2745 30.8317 7.99608 27.6609 4.75315ZM26.4365 15.4305L16.1042 25.762C15.5036 26.3626 14.5262 26.3626 13.9256 25.7619L3.52623 15.3625C2.24572 14.082 1.54055 12.3795 1.54055 10.5685C1.54055 8.75751 2.24572 7.05501 3.52623 5.7745C4.80697 4.4937 6.50971 3.78835 8.32072 3.78835C10.131 3.78835 11.8334 4.4937 13.1142 5.7745L13.9267 6.58696L12.6826 7.83202C12.3819 8.13296 12.3821 8.62063 12.683 8.92134C12.8334 9.07163 13.0304 9.14675 13.2274 9.14675C13.4247 9.14675 13.6219 9.0714 13.7723 8.92093L16.9163 5.77444C18.1971 4.49364 19.8998 3.78829 21.7108 3.78829C23.55 3.78829 25.2718 4.51345 26.5593 5.83011C29.143 8.47251 29.0879 12.7792 26.4365 15.4305Z" fill="url(#paint0_linear)"/>
<path d="M27.3216 10.2189C27.237 8.84901 26.6566 7.56077 25.6874 6.59145C25.0011 5.9052 24.1496 5.40657 23.2249 5.14917C22.8151 5.03514 22.3904 5.27497 22.2764 5.68483C22.1624 6.09464 22.4022 6.51932 22.8121 6.63335C23.4816 6.81962 24.0992 7.18178 24.5981 7.68071C25.3015 8.38407 25.7227 9.31917 25.7841 10.3138C25.8094 10.7223 26.1485 11.0366 26.5522 11.0366C26.5682 11.0366 26.5843 11.0361 26.6005 11.0351C27.025 11.009 27.3479 10.6436 27.3216 10.2189Z" fill="url(#paint1_linear)"/>
</g>
<defs>
<linearGradient id="paint0_linear" x1="5.53125" y1="9.82321" x2="40.4521" y2="24.6529" gradientUnits="userSpaceOnUse">
<stop stop-color="#C21500"/>
<stop offset="0.9999" stop-color="#E27200"/>
<stop offset="1" stop-color="#FFC500"/>
</linearGradient>
<linearGradient id="paint1_linear" x1="23.1838" y1="6.87793" x2="29.5463" y2="8.84855" gradientUnits="userSpaceOnUse">
<stop stop-color="#C21500"/>
<stop offset="0.9999" stop-color="#E27200"/>
<stop offset="1" stop-color="#FFC500"/>
</linearGradient>
<clipPath id="clip0">
<rect width="30" height="30" fill="white"/>
</clipPath>
</defs>
</svg>
