<svg width="22" height="22" viewBox="0 0 22 22" fill="none" xmlns="http://www.w3.org/2000/svg">
<path d="M1.375 20.625H11.0322L12.4072 22H0V0H11.9775L17.875 5.89746V8.25H16.5V6.875H11V1.375H1.375V20.625ZM12.375 2.35254V5.5H15.5225L12.375 2.35254ZM2.75 5.5H9.61426V6.86426H2.75V5.5ZM15.1143 8.25V9.61426H2.75V8.25H15.1143ZM2.75 11H10.9893V12.3643H2.75V11ZM11 13.75V15.1143H2.75V13.75H11ZM2.75 17.8643V16.5H11L9.625 17.8643H2.75ZM15.7803 16.124L14.0293 17.8643H20.625V19.25H14.0293L15.7803 21.001L14.8135 21.9678L11.3975 18.5625L14.8135 15.1572L15.7803 16.124ZM18.9707 12.375L17.2197 10.624L18.1865 9.65723L21.6025 13.0625L18.1865 16.4678L17.2197 15.501L18.9707 13.75H12.375V12.375H18.9707Z" fill="black"/>
</svg>
