<svg width="26" height="26" viewBox="0 0 26 26" fill="none" xmlns="http://www.w3.org/2000/svg">
<g clip-path="url(#clip0)">
<path d="M17.8623 10.207C17.5661 10.3678 17.2826 10.5413 17.0117 10.7275C16.7409 10.9137 16.487 11.1253 16.25 11.3623V11.1592L13 9.30566L9.75 11.1592V14.8408L13 16.6943L14.2441 15.9834C14.2441 16.0257 14.2399 16.068 14.2314 16.1104C14.223 16.1527 14.2188 16.1992 14.2188 16.25C14.2188 16.5039 14.2357 16.7578 14.2695 17.0117C14.3034 17.2656 14.3542 17.5153 14.4219 17.7607L13 18.5732L8.125 15.7803V10.2197L13 7.42676L17.8623 10.207ZM3.25 7.43945V18.5605L10.6006 22.75C10.389 22.9701 10.1986 23.1689 10.0293 23.3467C9.86003 23.5244 9.71191 23.7572 9.58496 24.0449L1.625 19.5V6.5L13 0L24.375 6.5V10.1943C23.8587 9.90658 23.3171 9.69499 22.75 9.55957V7.43945L13 1.86621L3.25 7.43945ZM21.125 11.375C21.7936 11.375 22.4242 11.502 23.0166 11.7559C23.609 12.0098 24.1253 12.3568 24.5654 12.7969C25.0055 13.237 25.3568 13.7575 25.6191 14.3584C25.8815 14.9593 26.0085 15.5898 26 16.25C26 16.9271 25.873 17.5576 25.6191 18.1416C25.3652 18.7256 25.0182 19.2419 24.5781 19.6904C24.138 20.139 23.6175 20.4902 23.0166 20.7441C22.4157 20.998 21.7852 21.125 21.125 21.125C20.6172 21.125 20.1221 21.0488 19.6396 20.8965C19.1572 20.7441 18.7129 20.5199 18.3066 20.2236L12.7588 25.7588C12.598 25.9196 12.4076 26 12.1875 26C11.9674 26 11.777 25.9196 11.6162 25.7588C11.4554 25.598 11.375 25.4076 11.375 25.1875C11.375 24.9674 11.4554 24.777 11.6162 24.6162L17.1514 19.0684C16.8551 18.6621 16.6309 18.2178 16.4785 17.7354C16.3262 17.2529 16.25 16.7578 16.25 16.25C16.25 15.5814 16.377 14.9508 16.6309 14.3584C16.8848 13.766 17.2318 13.2497 17.6719 12.8096C18.112 12.3695 18.6283 12.0182 19.2207 11.7559C19.8132 11.4935 20.4479 11.3665 21.125 11.375ZM21.125 19.5C21.5736 19.5 21.9925 19.4154 22.3818 19.2461C22.7712 19.0768 23.1182 18.8441 23.4229 18.5479C23.7275 18.2516 23.9603 17.9089 24.1211 17.5195C24.2819 17.1302 24.3665 16.707 24.375 16.25C24.375 15.8014 24.2904 15.3825 24.1211 14.9932C23.9518 14.6038 23.7191 14.2568 23.4229 13.9521C23.1266 13.6475 22.7839 13.4147 22.3945 13.2539C22.0052 13.0931 21.582 13.0085 21.125 13C20.6764 13 20.2575 13.0846 19.8682 13.2539C19.4788 13.4232 19.1318 13.6559 18.8271 13.9521C18.5225 14.2484 18.2897 14.5911 18.1289 14.9805C17.9681 15.3698 17.8835 15.793 17.875 16.25C17.875 16.6986 17.9596 17.1175 18.1289 17.5068C18.2982 17.8962 18.5309 18.2432 18.8271 18.5479C19.1234 18.8525 19.4661 19.0853 19.8555 19.2461C20.2448 19.4069 20.668 19.4915 21.125 19.5Z" fill="black"/>
</g>
<defs>
<clipPath id="clip0">
<rect width="26" height="26" fill="white"/>
</clipPath>
</defs>
</svg>
